<svg width="1080" height="1080" viewBox="0 0 1080 1080" fill="none" xmlns="http://www.w3.org/2000/svg">
<rect width="1080" height="1080" rx="32" fill="#FEC302"/>
<path d="M373.44 471.6C354.24 471.6 339.6 466.2 329.52 455.4C319.44 444.36 314.4 428.64 314.4 408.24V275.76C314.4 255.36 319.44 239.76 329.52 228.96C339.6 217.92 354.24 212.4 373.44 212.4C392.64 212.4 407.28 217.92 417.36 228.96C427.44 239.76 432.48 255.36 432.48 275.76V297.36H395.04V273.24C395.04 256.68 388.2 248.4 374.52 248.4C360.84 248.4 354 256.68 354 273.24V411.12C354 427.44 360.84 435.6 374.52 435.6C388.2 435.6 395.04 427.44 395.04 411.12V361.8H375.24V325.8H432.48V408.24C432.48 428.64 427.44 444.36 417.36 455.4C407.28 466.2 392.64 471.6 373.44 471.6ZM457.905 216H497.505V468H457.905V216ZM578.642 471.6C559.442 471.6 544.922 466.2 535.082 455.4C525.242 444.36 520.322 428.64 520.322 408.24V393.84H557.762V411.12C557.762 427.44 564.602 435.6 578.282 435.6C585.002 435.6 590.042 433.68 593.402 429.84C597.002 425.76 598.802 419.28 598.802 410.4C598.802 399.84 596.402 390.6 591.602 382.68C586.802 374.52 577.922 364.8 564.962 353.52C548.642 339.12 537.242 326.16 530.762 314.64C524.282 302.88 521.042 289.68 521.042 275.04C521.042 255.12 526.082 239.76 536.162 228.96C546.242 217.92 560.882 212.4 580.082 212.4C599.042 212.4 613.322 217.92 622.922 228.96C632.762 239.76 637.682 255.36 637.682 275.76V286.2H600.242V273.24C600.242 264.6 598.562 258.36 595.202 254.52C591.842 250.44 586.922 248.4 580.442 248.4C567.242 248.4 560.642 256.44 560.642 272.52C560.642 281.64 563.042 290.16 567.842 298.08C572.882 306 581.882 315.6 594.842 326.88C611.402 341.28 622.802 354.36 629.042 366.12C635.282 377.88 638.402 391.68 638.402 407.52C638.402 428.16 633.242 444 622.922 455.04C612.842 466.08 598.082 471.6 578.642 471.6ZM692.068 252H650.668V216H773.068V252H731.668V468H692.068V252ZM327.299 576H366.899V792H432.059V828H327.299V576ZM451.049 576H490.649V828H451.049V576ZM551.267 612H509.867V576H632.267V612H590.867V828H551.267V612ZM651.44 576H759.44V612H691.04V678.6H745.4V714.6H691.04V792H759.44V828H651.44V576Z" fill="#110E0E"/>
</svg>
